<?xml version="1.0" encoding="UTF-8" standalone="no"?>
<!-- Created with Inkscape (http://www.inkscape.org/) -->

<svg
   width="100"
   height="100"
   viewBox="0 0 26.458334 26.458333"
   version="1.1"
   id="svg8752"
   sodipodi:docname="devguide.svg"
   inkscape:version="1.2.2 (b0a8486541, 2022-12-01)"
   xmlns:inkscape="http://www.inkscape.org/namespaces/inkscape"
   xmlns:sodipodi="http://sodipodi.sourceforge.net/DTD/sodipodi-0.dtd"
   xmlns="http://www.w3.org/2000/svg"
   xmlns:svg="http://www.w3.org/2000/svg">
  <sodipodi:namedview
     id="namedview8754"
     pagecolor="#ffffff"
     bordercolor="#666666"
     borderopacity="1.0"
     inkscape:showpageshadow="2"
     inkscape:pageopacity="0.0"
     inkscape:pagecheckerboard="0"
     inkscape:deskcolor="#d1d1d1"
     inkscape:document-units="mm"
     showgrid="false"
     inkscape:zoom="2"
     inkscape:cx="-64.75"
     inkscape:cy="53.5"
     inkscape:window-width="2560"
     inkscape:window-height="1403"
     inkscape:window-x="0"
     inkscape:window-y="0"
     inkscape:window-maximized="1"
     inkscape:current-layer="layer1" />
  <defs
     id="defs8749" />
  <g
     inkscape:label="Layer 1"
     inkscape:groupmode="layer"
     id="layer1"
     transform="translate(-87.210508,-28.307799)">
    <path
       d="m 96.066367,42.61187 -1.944503,-1.944504 c -0.22437,-0.22437 -0.466086,-0.391292 -0.724052,-0.499682 -0.261223,-0.109509 -0.548461,-0.166921 -0.85954,-0.170168 -0.704544,-0.0078 -1.399324,-0.143071 -2.044236,-0.407564 -0.628653,-0.257966 -1.209635,-0.635172 -1.707121,-1.133745 -0.764142,-0.764142 -1.242156,-1.714724 -1.439413,-2.729238 -0.200518,-1.032958 -0.107292,-2.134182 0.273138,-3.171561 0.132241,-0.358773 0.530041,-0.543022 0.888791,-0.411887 0.09753,0.0358 0.182095,0.09099 0.25147,0.160416 l 2.330365,2.329278 1.897886,-0.552784 0.553869,-1.897895 -2.330365,-2.330366 c -0.270965,-0.270966 -0.270965,-0.709953 0,-0.98093 0.08236,-0.08236 0.18101,-0.139823 0.285054,-0.172343 1.02644,-0.370676 2.11576,-0.459558 3.13799,-0.261212 1.013427,0.197258 1.962935,0.67526 2.727078,1.439402 0.500756,0.497519 0.877961,1.078479 1.135938,1.707132 0.26447,0.644912 0.399948,1.338605 0.407552,2.044225 0.0033,0.306756 0.06074,0.593971 0.172342,0.85954 l 0.01729,0.04556 c 0.109508,0.243878 0.268805,0.47041 0.476938,0.678519 l 1.946692,1.944503 2.36832,-2.368327 0.25797,-2.161291 c 0.026,-0.216778 0.14958,-0.398875 0.32193,-0.506179 l 5.3359,-3.663528 c 0.27963,-0.190763 0.64923,-0.149576 0.88012,0.08236 l 2.71625,2.71842 c 0.23846,0.239533 0.26447,0.609148 0.0813,0.877963 l -3.6799,5.359753 c -0.11706,0.172333 -0.29807,0.274226 -0.48991,0.296982 l -2.16131,0.259051 -2.36832,2.368327 1.9445,1.944504 c 0.22436,0.224359 0.465,0.390184 0.72298,0.49968 0.26663,0.10951 0.55386,0.166913 0.86061,0.170171 0.70454,0.0078 1.39933,0.14307 2.04423,0.407552 0.62867,0.257978 1.20963,0.635181 1.70712,1.133744 l 0.0369,0.04012 c 0.74249,0.757646 1.20857,1.691968 1.40259,2.689137 0.20051,1.032969 0.10727,2.135269 -0.27315,3.171562 -0.13222,0.358785 -0.53003,0.543031 -0.8888,0.411887 -0.0975,-0.03581 -0.18209,-0.09099 -0.25146,-0.160417 l -2.33037,-2.329278 -1.89787,0.553871 -0.55279,1.897894 2.33035,2.330367 c 0.27099,0.270966 0.27099,0.709952 0,0.98093 -0.0824,0.08236 -0.18099,0.139822 -0.28506,0.172343 -1.02642,0.370676 -2.11467,0.459557 -3.13798,0.261223 -1.01561,-0.19727 -1.96617,-0.675271 -2.72922,-1.439413 -0.49752,-0.497521 -0.87577,-1.07848 -1.13377,-1.707132 -0.26445,-0.644902 -0.39993,-1.338606 -0.40754,-2.044226 -0.003,-0.306756 -0.0608,-0.593972 -0.17234,-0.859539 l -0.0173,-0.04557 c -0.10951,-0.242793 -0.2699,-0.47041 -0.47801,-0.679605 l -1.945615,-1.943418 -0.526771,0.526759 c 0.331674,0.357698 0.498608,0.815095 0.498608,1.270318 0,0.478012 -0.183183,0.955992 -0.547387,1.321272 l -4.80369,4.805894 c -0.598294,0.598306 -1.386299,0.898556 -2.174282,0.898556 -0.786897,0 -1.575977,-0.300228 -2.174282,-0.898556 L 88.145265,52.34074 c -0.600489,-0.597207 -0.89964,-1.386299 -0.89964,-2.173195 0,-0.785822 0.299151,-1.572751 0.89747,-2.171046 l 4.803689,-4.805906 c 0.365268,-0.365269 0.844366,-0.547376 1.324507,-0.547376 0.456322,0 0.913739,0.165836 1.271404,0.496434 l 0.524598,-0.524598 z m 4.473233,-4.473214 -1.944533,-1.944503 c -0.331663,-0.333835 -0.587466,-0.703459 -0.76739,-1.108827 l -0.02815,-0.05963 c -0.177764,-0.423791 -0.270978,-0.88663 -0.275312,-1.385225 -0.0056,-0.527845 -0.107291,-1.047035 -0.304583,-1.529369 -0.187517,-0.456311 -0.466087,-0.883384 -0.834603,-1.251898 -0.560364,-0.562527 -1.260575,-0.913728 -2.009544,-1.060047 -0.424878,-0.08236 -0.866035,-0.09975 -1.307171,-0.05199 l 1.744008,1.744008 c 0.17017,0.174504 0.246038,0.432469 0.173418,0.682842 l -0.774993,2.656618 c -0.06395,0.220038 -0.235211,0.403207 -0.471495,0.471495 l -2.60243,0.758733 c -0.247126,0.09321 -0.537609,0.04124 -0.73703,-0.158255 l -1.744,-1.743999 c -0.04767,0.441136 -0.03036,0.882295 0.05199,1.307171 0.145243,0.746796 0.49751,1.446985 1.060048,2.009544 0.369589,0.369602 0.795575,0.648161 1.251886,0.834592 0.481259,0.19727 1.001524,0.299153 1.529381,0.304594 0.494238,0.0044 0.957066,0.09753 1.385212,0.277473 0.432481,0.182097 0.82159,0.446579 1.168437,0.792339 l 1.944503,1.944503 3.492351,-3.492328 z m 3.26148,3.261474 -3.49234,3.493435 1.9445,1.944504 c 0.3306,0.333835 0.58747,0.703457 0.7674,1.108829 l 0.0281,0.05963 c 0.17775,0.423791 0.27097,0.886618 0.27533,1.384139 0.006,0.527844 0.10728,1.047033 0.30457,1.529369 0.18751,0.45631 0.46607,0.883371 0.83459,1.251885 0.56254,0.562538 1.26167,0.914816 2.00955,1.060059 0.42486,0.08236 0.86603,0.09975 1.30717,0.05199 l -1.74399,-1.743996 c -0.17018,-0.174503 -0.24605,-0.43247 -0.17343,-0.682841 l 0.77499,-2.65662 c 0.064,-0.220036 0.23521,-0.403206 0.47149,-0.471494 l 2.60243,-0.759819 c 0.24712,-0.09321 0.53762,-0.04124 0.73703,0.158254 l 1.74401,1.743998 c 0.0476,-0.442245 0.0303,-0.882296 -0.0521,-1.30716 -0.14308,-0.734881 -0.48452,-1.422079 -1.02645,-1.978112 l -0.0335,-0.03147 c -0.3696,-0.369601 -0.79559,-0.648159 -1.2519,-0.834602 -0.48124,-0.197269 -1.00154,-0.299141 -1.52937,-0.304583 -0.4986,-0.0044 -0.9614,-0.09753 -1.38414,-0.275312 -0.4314,-0.184257 -0.82158,-0.448728 -1.16843,-0.795575 l -1.9445,-1.944514 z m 1.23672,-5.799827 -8.516099,8.515222 1.300679,1.300666 8.51523,-8.515212 c 0.1062,-0.106182 0.24822,-0.178848 0.40867,-0.198356 l 2.08972,-0.249297 3.17684,-4.626105 -1.90332,-1.901155 -4.62499,3.175718 -0.24713,2.070229 c -0.0141,0.156082 -0.0813,0.308917 -0.20052,0.428157 z m -7.266616,11.725633 -3.158528,-3.158528 c -0.09321,-0.09321 -0.218939,-0.140908 -0.343587,-0.140908 -0.125737,0 -0.250385,0.04765 -0.343611,0.140908 l -4.802848,4.802859 c -0.327338,0.326253 -0.491002,0.759809 -0.491002,1.193374 0,0.433556 0.163675,0.866025 0.491002,1.193375 l 1.458921,1.45891 c 0.327339,0.327339 0.759809,0.491003 1.193374,0.491003 0.433556,0 0.866036,-0.163675 1.193376,-0.491003 l 4.802847,-4.802847 c 0.09431,-0.09321 0.140908,-0.217864 0.140908,-0.343599 0,-0.115982 -0.04011,-0.231952 -0.118143,-0.321931 z"
       id="path1019"
       style="fill:#2b8ea0;fill-opacity:1;stroke-width:0.277476" />
  </g>
</svg>
