<?xml version="1.0" encoding="UTF-8" standalone="no"?>
<!-- Created with Inkscape (http://www.inkscape.org/) -->

<svg
   width="100"
   height="100"
   viewBox="0 0 26.458334 26.458333"
   version="1.1"
   id="svg8752"
   sodipodi:docname="devguide.svg"
   inkscape:version="1.2.2 (b0a8486541, 2022-12-01)"
   xmlns:inkscape="http://www.inkscape.org/namespaces/inkscape"
   xmlns:sodipodi="http://sodipodi.sourceforge.net/DTD/sodipodi-0.dtd"
   xmlns="http://www.w3.org/2000/svg"
   xmlns:svg="http://www.w3.org/2000/svg">
  <sodipodi:namedview
     id="namedview8754"
     pagecolor="#ffffff"
     bordercolor="#666666"
     borderopacity="1.0"
     inkscape:showpageshadow="2"
     inkscape:pageopacity="0.0"
     inkscape:pagecheckerboard="0"
     inkscape:deskcolor="#d1d1d1"
     inkscape:document-units="mm"
     showgrid="false"
     inkscape:zoom="8"
     inkscape:cx="39.4375"
     inkscape:cy="50.125"
     inkscape:window-width="2560"
     inkscape:window-height="1403"
     inkscape:window-x="0"
     inkscape:window-y="0"
     inkscape:window-maximized="1"
     inkscape:current-layer="layer1" />
  <defs
     id="defs8749" />
  <g
     inkscape:label="Layer 1"
     inkscape:groupmode="layer"
     id="layer1"
     transform="translate(-87.210508,-28.307799)">
    <path
       d="M 109.51803,28.425255 H 94.818091 c -2.501446,0.0042 -4.528302,2.031207 -4.532654,4.532651 V 50.69037 c 0,0.0609 0.0057,0.120398 0.01841,0.181306 0,0.111897 -0.01841,0.22805 -0.01841,0.341367 v 0.286122 c 0.0014,1.756423 1.423544,3.181343 3.179931,3.187037 h 16.052842 c 0.24079,0 0.47168,-0.09632 0.64165,-0.2663 0.16995,-0.169969 0.26487,-0.400864 0.26487,-0.640226 V 29.331635 c 0,-0.239382 -0.0948,-0.470269 -0.26487,-0.640227 -0.16998,-0.169956 -0.40088,-0.266297 -0.64165,-0.266297 z m -14.699939,1.81306 H 108.59735 V 48.024806 H 93.465546 c -0.477341,0.0014 -0.947614,0.109068 -1.378216,0.315869 V 32.957939 c 0.0014,-0.722395 0.288957,-1.415023 0.801699,-1.924964 0.51277,-0.511354 1.206808,-0.796042 1.929207,-0.794626 z m -2.719593,21.259592 v -0.286121 c 0.0014,-0.75496 0.611911,-1.368283 1.36687,-1.373976 h 15.146302 v 3.035464 H 93.465368 c -0.754959,-0.0057 -1.365456,-0.61898 -1.36687,-1.373975 z"
       id="path2159"
       style="fill:#2b8ea0;fill-opacity:1;stroke-width:0.362612" />
  </g>
</svg>
