<?xml version="1.0" encoding="UTF-8" standalone="no"?>
<!-- Created with Inkscape (http://www.inkscape.org/) -->

<svg
   width="100"
   height="100"
   viewBox="0 0 26.458334 26.458333"
   version="1.1"
   id="svg8752"
   inkscape:version="1.2.2 (b0a8486541, 2022-12-01)"
   sodipodi:docname="devguide.svg"
   xmlns:inkscape="http://www.inkscape.org/namespaces/inkscape"
   xmlns:sodipodi="http://sodipodi.sourceforge.net/DTD/sodipodi-0.dtd"
   xmlns="http://www.w3.org/2000/svg"
   xmlns:svg="http://www.w3.org/2000/svg">
  <sodipodi:namedview
     id="namedview8754"
     pagecolor="#ffffff"
     bordercolor="#666666"
     borderopacity="1.0"
     inkscape:showpageshadow="2"
     inkscape:pageopacity="0.0"
     inkscape:pagecheckerboard="0"
     inkscape:deskcolor="#d1d1d1"
     inkscape:document-units="mm"
     showgrid="false"
     inkscape:zoom="2"
     inkscape:cx="-64.75"
     inkscape:cy="53.5"
     inkscape:window-width="2560"
     inkscape:window-height="1403"
     inkscape:window-x="0"
     inkscape:window-y="0"
     inkscape:window-maximized="1"
     inkscape:current-layer="layer1" />
  <defs
     id="defs8749" />
  <g
     inkscape:label="Layer 1"
     inkscape:groupmode="layer"
     id="layer1"
     transform="translate(-87.210508,-28.307799)">
    <g
       id="g2320"
       transform="matrix(0.02271634,0,0,0.02271634,48.277608,0.48457708)"
       style="fill:#2b8ea0;fill-opacity:1">
      <path
         d="m 2137.2591,2303.9698 c 0,25.5721 -20.729,46.3011 -46.3011,46.3011 h -23.1505 c -127.8559,0 -231.5056,-103.6496 -231.5056,-231.5055 V 1963.226 c 0,-13.124 -5.571,-25.6346 -15.3273,-34.4133 l -85.0982,-76.589 c -9.7563,-8.781 -15.3273,-21.2892 -15.3273,-34.4156 0,-13.1263 5.571,-25.6346 15.3273,-34.4156 l 85.0982,-76.589 c 9.7563,-8.7787 15.3273,-21.2892 15.3273,-34.4156 v -155.537 c 0,-127.8559 103.6497,-231.5056 231.5056,-231.5056 h 23.1505 c 25.5721,0 46.3011,20.7297 46.3011,46.3011 0,25.5721 -20.729,46.3011 -46.3011,46.3011 h -23.1505 c -76.714,0 -138.9034,62.1894 -138.9034,138.9034 v 155.537 c 0,39.3791 -16.7124,76.9062 -45.9818,103.2469 l -46.8591,42.1733 46.8591,42.1734 c 29.2694,26.3407 45.9818,63.8678 45.9818,103.2445 v 155.5394 c 0,76.714 62.1894,138.9033 138.9034,138.9033 h 23.1505 c 25.5721,0 46.3011,20.729 46.3011,46.3011 z"
         fill="#000000"
         id="path642"
         style="fill:#2b8ea0;fill-opacity:1;stroke-width:23.1506" />
      <path
         d="m 2458.8725,2303.9698 c 0,25.5721 20.729,46.3011 46.3011,46.3011 h 23.1506 c 127.8559,0 231.5055,-103.6496 231.5055,-231.5055 V 1963.226 c 0,-13.124 5.5701,-25.6346 15.328,-34.4133 l 85.0969,-76.589 c 9.7579,-8.781 15.3279,-21.2892 15.3279,-34.4156 0,-13.1263 -5.57,-25.6346 -15.3279,-34.4156 l -85.0969,-76.589 c -9.7579,-8.7787 -15.328,-21.2892 -15.328,-34.4156 v -155.537 c 0,-127.8559 -103.6496,-231.5056 -231.5055,-231.5056 h -23.1506 c -25.5721,0 -46.3011,20.7297 -46.3011,46.3011 0,25.5721 20.729,46.3011 46.3011,46.3011 h 23.1506 c 76.714,0 138.9033,62.1894 138.9033,138.9034 v 155.537 c 0,39.3791 16.7124,76.9062 45.9817,103.2469 l 46.859,42.1733 -46.859,42.1734 c -29.2693,26.3407 -45.9817,63.8678 -45.9817,103.2445 v 155.5394 c 0,76.714 -62.1893,138.9033 -138.9033,138.9033 h -23.1506 c -25.5721,0 -46.3011,20.729 -46.3011,46.3011 z"
         fill="#000000"
         id="path644"
         style="fill:#2b8ea0;fill-opacity:1;stroke-width:23.1504;stroke-dasharray:none" />
      <path
         d="m 2113.3603,2004.5092 c 25.5721,0 46.3011,-20.729 46.3011,-46.3011 0,-25.5721 -20.729,-46.3011 -46.3011,-46.3011 -25.5722,0 -46.3012,20.729 -46.3012,46.3011 0,25.5721 20.729,46.3011 46.3012,46.3011 z"
         fill="#000000"
         id="path646"
         style="fill:#2b8ea0;fill-opacity:1;stroke-width:23.1506" />
      <path
         d="m 2298.0658,2004.5092 c 25.5721,0 46.3011,-20.729 46.3011,-46.3011 0,-25.5721 -20.729,-46.3011 -46.3011,-46.3011 -25.5721,0 -46.3011,20.729 -46.3011,46.3011 0,25.5721 20.729,46.3011 46.3011,46.3011 z"
         fill="#000000"
         id="path648"
         style="fill:#2b8ea0;fill-opacity:1;stroke-width:23.1506" />
      <path
         d="m 2529.0725,1958.2081 c 0,25.5721 -20.729,46.3011 -46.3011,46.3011 -25.5721,0 -46.3011,-20.729 -46.3011,-46.3011 0,-25.5721 20.729,-46.3011 46.3011,-46.3011 25.5721,0 46.3011,20.729 46.3011,46.3011 z"
         fill="#000000"
         id="path650"
         style="fill:#2b8ea0;fill-opacity:1;stroke-width:23.1506" />
    </g>
  </g>
</svg>
